<svg viewBox="0 0 600 140" xmlns="http://www.w3.org/2000/svg">

  <!-- Gradient -->
  <defs>
    <linearGradient id="grad1" x1="0" y1="0" x2="1" y2="1">
      <stop offset="0%" stop-color="#22d3ee"/>
      <stop offset="100%" stop-color="#a855f7"/>
    </linearGradient>
  </defs>

  <!-- Sparkles -->
  <g transform="translate(60,10)" opacity="0.9">
    <path d="M20 0 L25 12 L38 16 L25 20 L20 32 L15 20 L2 16 L15 12 Z" fill="url(#grad1)"/>
    <path d="M0 8 L3 14 L10 17 L3 20 L0 26 L-3 20 L-10 17 L-3 14 Z" fill="url(#grad1)"/>
    <path d="M38 8 L40 12 L45 14 L40 16 L38 20 L36 16 L31 14 L36 12 Z" fill="url(#grad1)"/>
  </g>

  <!-- Label Icon -->
  <g transform="translate(40,40) scale(1.4)">
    <path d="M0 10 L10 0 L70 0 Q80 0 80 10 L80 40 Q80 50 70 50 L0 50 Z"
          stroke="white"
          stroke-width="3"
          fill="none"/>

    <rect x="20" y="12" width="40" height="6" rx="3" fill="url(#grad1)"/>
    <rect x="20" y="26" width="30" height="6" rx="3" fill="url(#grad1)"/>
  </g>

  <!-- Text -->
  <text x="200" y="90"
        font-family="Inter, sans-serif"
        font-size="64"
        font-weight="600"
        fill="white">
    Instabels
  </text>

</svg>